<svg xmlns="http://www.w3.org/2000/svg" viewBox="0 0 164.69 62.16"><defs><style>.cls-1{fill:#e8635e;}.cls-2{fill:#29b7c3;}.cls-3{fill:#f2b771;}.cls-4{fill:#1d1d1b;}</style></defs><g id="Layer_2" data-name="Layer 2"><g id="Layer_1-2" data-name="Layer 1"><path class="cls-1" d="M61.27,38.48A31.08,31.08,0,1,1,38.18.82L34.52,15.93a15,15,0,0,0-3.44-.39,15.54,15.54,0,0,0,0,31.08,15.37,15.37,0,0,0,3.92-.5A15.58,15.58,0,0,0,46.44,33.48Z"/><path class="cls-2" d="M38.18.82,34.52,15.93a15,15,0,0,0-3.44-.39,15.56,15.56,0,0,0-14.34,9.54l-16-.84A31.09,31.09,0,0,1,38.18.82Z"/><path class="cls-3" d="M61.27,38.48a31.06,31.06,0,0,1-18,21.17L35,46.12A15.58,15.58,0,0,0,46.44,33.48Z"/><path class="cls-4" d="M98.56,44.16,93.89,32.64H86.72V44.16H80.16V12.34h15a12.88,12.88,0,0,1,6.27,1.23,6,6,0,0,1,2.86,3.37,17.75,17.75,0,0,1,.72,5.53q0,7.53-4.53,9.29l5.08,12.4ZM96.41,26.58A2.2,2.2,0,0,0,98,25.31a8.53,8.53,0,0,0,.35-2.84A8.53,8.53,0,0,0,98,19.6a2.19,2.19,0,0,0-1.52-1.23A15.6,15.6,0,0,0,92.55,18H86.72V27H92.5A14.69,14.69,0,0,0,96.41,26.58Z"/><path class="cls-4" d="M111.09,43.79V38.28q5.68.55,9.71.56a24.75,24.75,0,0,0,3.68-.21,4.24,4.24,0,0,0,2-.72,2,2,0,0,0,.77-1.11,8.58,8.58,0,0,0,.16-1.85,7.16,7.16,0,0,0-.19-2,1.48,1.48,0,0,0-.74-.93,5.51,5.51,0,0,0-1.84-.44l-6.8-.78a10.62,10.62,0,0,1-4.72-1.6,6,6,0,0,1-2.29-3,15.08,15.08,0,0,1-.62-4.65,10.67,10.67,0,0,1,1.48-6.17,6.79,6.79,0,0,1,4-2.75,26.41,26.41,0,0,1,6.43-.65,49.76,49.76,0,0,1,10.36.93v5.36a68,68,0,0,0-9-.6c-2.77,0-4.61.23-5.5.69a1.71,1.71,0,0,0-.93,1,6.79,6.79,0,0,0-.18,1.81,7.8,7.8,0,0,0,.18,2,1.34,1.34,0,0,0,.81.85,9.06,9.06,0,0,0,2.11.44l7.3.88a11.87,11.87,0,0,1,3.52.85,4.65,4.65,0,0,1,2.17,2.06A13.11,13.11,0,0,1,134,34.35q0,4.4-1.39,6.61a6.32,6.32,0,0,1-3.72,2.89,22.7,22.7,0,0,1-6.13.68A79.17,79.17,0,0,1,111.09,43.79Z"/><path class="cls-4" d="M140.32,12.34H155a12.21,12.21,0,0,1,6.1,1.25A6.21,6.21,0,0,1,164,17.1a19.28,19.28,0,0,1,.74,5.83,19.09,19.09,0,0,1-.72,5.69,6.42,6.42,0,0,1-2.89,3.6,11.9,11.9,0,0,1-6.24,1.35h-8V44.16h-6.56Zm11.83,15.54a14.89,14.89,0,0,0,4-.37,2.24,2.24,0,0,0,1.57-1.37,9.9,9.9,0,0,0,.37-3.21,10.52,10.52,0,0,0-.34-3.19,2.18,2.18,0,0,0-1.53-1.34,14.53,14.53,0,0,0-3.95-.37h-5.37v9.85Z"/></g></g></svg>