<svg xmlns="http://www.w3.org/2000/svg" viewBox="0 0 164.75 62.18"><defs><style>.cls-1{fill:#fff;}</style></defs><g id="Layer_2" data-name="Layer 2"><g id="Layer_1-2" data-name="Layer 1"><g id="Layer_2-2" data-name="Layer 2"><g id="Layer_1-2-2" data-name="Layer 1-2"><path class="cls-1" d="M61.27,38.49A31.08,31.08,0,1,1,38.18.83L34.52,15.94a15.25,15.25,0,0,0-3.44-.39,15.54,15.54,0,0,0,0,31.08,15.21,15.21,0,0,0,3.92-.5A15.57,15.57,0,0,0,46.44,33.49Z"/><path class="cls-1" d="M38.18.83,34.52,15.94a15.25,15.25,0,0,0-3.44-.39,15.56,15.56,0,0,0-14.34,9.54l-16-.84A31.1,31.1,0,0,1,37.92.77Z"/><path class="cls-1" d="M61.27,38.49a31,31,0,0,1-18,21.17L35,46.13A15.57,15.57,0,0,0,46.44,33.49Z"/><path class="cls-1" d="M98.56,44.17,93.89,32.65H86.72V44.17H80.16V12.35h15a12.91,12.91,0,0,1,6.27,1.23A6,6,0,0,1,104.29,17a17.56,17.56,0,0,1,.72,5.53q0,7.53-4.53,9.29l5.08,12.4ZM96.41,26.59A2.19,2.19,0,0,0,98,25.32a8.27,8.27,0,0,0,.35-2.84A8.44,8.44,0,0,0,98,19.61a2.2,2.2,0,0,0-1.52-1.23A15.74,15.74,0,0,0,92.55,18H86.72v9H92.5A14.3,14.3,0,0,0,96.41,26.59Z"/><path class="cls-1" d="M111.09,43.8V38.29c3.79.37,7,.55,9.71.56a25.16,25.16,0,0,0,3.68-.21,4.1,4.1,0,0,0,2-.72,2,2,0,0,0,.77-1.11,8.22,8.22,0,0,0,.16-1.85,7.11,7.11,0,0,0-.19-2,1.44,1.44,0,0,0-.74-.93,5.51,5.51,0,0,0-1.84-.44l-6.8-.78a10.66,10.66,0,0,1-4.72-1.6,6,6,0,0,1-2.29-3,15.57,15.57,0,0,1-.62-4.65,10.76,10.76,0,0,1,1.48-6.17,6.79,6.79,0,0,1,4-2.75,26.25,26.25,0,0,1,6.43-.65,50,50,0,0,1,10.36.93v5.36a67.69,67.69,0,0,0-9-.6c-2.77,0-4.61.23-5.5.69a1.73,1.73,0,0,0-.93,1,6.87,6.87,0,0,0-.18,1.81,8.37,8.37,0,0,0,.18,2,1.37,1.37,0,0,0,.81.85,9,9,0,0,0,2.11.44l7.3.88a11.85,11.85,0,0,1,3.52.85A4.61,4.61,0,0,1,133,28.26a13,13,0,0,1,1,6.1c0,2.93-.46,5.14-1.39,6.61a6.3,6.3,0,0,1-3.72,2.89,22.58,22.58,0,0,1-6.13.68A78.59,78.59,0,0,1,111.09,43.8Z"/><path class="cls-1" d="M140.32,12.35H155a12.14,12.14,0,0,1,6.1,1.25,6.18,6.18,0,0,1,2.9,3.51,18.87,18.87,0,0,1,.74,5.83,18.88,18.88,0,0,1-.72,5.69,6.38,6.38,0,0,1-2.89,3.6,11.84,11.84,0,0,1-6.24,1.35h-8V44.17h-6.56Zm11.83,15.54a14.92,14.92,0,0,0,4-.37,2.21,2.21,0,0,0,1.57-1.37,9.68,9.68,0,0,0,.37-3.21,10.42,10.42,0,0,0-.34-3.19,2.18,2.18,0,0,0-1.53-1.34,14.55,14.55,0,0,0-3.95-.37H146.9v9.85Z"/></g></g></g></g></svg>